<svg xmlns="http://www.w3.org/2000/svg" viewBox="0 0 220 220" role="img" aria-label="Placeholder portrait">
  <rect width="220" height="220" fill="#CFE0FA"/>
  <circle cx="110" cy="96" r="74" fill="#E4EEFC"/>
  <path d="M14 220c0-52 42-72 96-72s96 20 96 72z" fill="#2847C7"/>
  <path d="M86 146c4 10 14 16 24 16s20-6 24-16v-14H86z" fill="#3B4A72"/>
  <circle cx="110" cy="92" r="40" fill="#3B4A72"/>
  <path d="M68 90c0-28 18-44 44-44 24 0 42 14 42 40-10-12-26-20-46-20-14 0-30 6-40 24z" fill="#1E2433"/>
</svg>
